Coordinates
version=1
nRows=6
nColumns=107
inDegrees=yes

Units are S.I. units (second, meters, Newtons, ...)
If the header above contains a line with 'inDegrees', this indicates whether rotational values are in degrees (yes) or radians (no).

endheader
time	sternoclavicular_r2	sternoclavicular_r3	unrotscap_r3	unrotscap_r2	acromioclavicular_r2	acromioclavicular_r3	acromioclavicular_r1	unrothum_r1	unrothum_r3	unrothum_r2	elv_angle	shoulder_elv	shoulder1_r2	shoulder_rot	elbow_flexion	pro_sup	deviation	flexion	proximal_distal_r1	proximal_distal_r3	cmc_flexion	cmc_abduction	mp_flexion	ip_flexion	mcp2_flexion	mcp2_abduction	pm2_flexion	md2_flexion	mcp3_flexion	mcp3_abduction	pm3_flexion	md3_flexion	mcp4_flexion	mcp4_abduction	pm4_flexion	md4_flexion	mcp5_flexion	mcp5_abduction	pm5_flexion	md5_flexion	bicpt_tx	bicpt_ty	bicpt_tz	bicpt2_tx	bicpt2_ty	bicpt2_tz	ptpt_tx	ptpt_ty	ptpt_tz	FCUpt_tx	FCUpt_ty	FCUpt_tz	EDCpt_tx	EDCpt_ty	EDCpt_tz	APLpt_tx	APLpt_ty	APLpt_tz	FPLpt_tx	FPLpt_ty	FPLpt_tz	FPLpt2_tx	FPLpt2_ty	FPLpt2_tz	PEC1pt2_tx	PEC1pt2_ty	PEC1pt2_tz	PEC1pt3_tx	PEC1pt3_ty	PEC1pt3_tz	PEC2pt2_tx	PEC2pt2_ty	PEC2pt2_tz	PEC2pt3_tx	PEC2pt3_ty	PEC2pt3_tz	PEC3pt2_tx	PEC3pt2_ty	PEC3pt2_tz	PEC3pt3_tx	PEC3pt3_ty	PEC3pt3_tz	DELT2pt2a_tx	DELT2pt2a_ty	DELT2pt2a_tz	DELT2pt2_tx	DELT2pt2_ty	DELT2pt2_tz	LAT1pt2_tx	LAT1pt2_ty	LAT1pt2_tz	LAT1pt3_tx	LAT1pt3_ty	LAT1pt3_tz	LAT2pt2_tx	LAT2pt2_ty	LAT2pt2_tz	LAT2pt3_tx	LAT2pt3_ty	LAT2pt3_tz	LAT3pt2_tx	LAT3pt2_ty	LAT3pt2_tz	LAT3pt3_tx	LAT3pt3_ty	LAT3pt3_tz
      1.20000000	     -0.32132724	      0.13609905	     -0.13609905	      0.32132724	     -0.06506223	      0.52581006	      0.23634800	     -0.23634800	     -0.52581006	      0.06506223	     99.07588175	     76.07708121	     -1.72920035	    -24.82214707	     30.73851012	     52.08791610	      0.28003759	     -0.05082232	      0.31586225	     -0.02541116	     31.77520900	    -17.27888238	    -16.69989092	     -2.54458202	    -10.84012983	      8.50944361	     38.73411540	      3.86965653	     -2.20960393	     -3.68192670	     21.72741865	     19.48799445	     13.90779768	     -4.40626940	      5.66137426	     24.12439680	     43.10605408	    -14.06144757	    -10.08401229	      5.02115009	      0.00091673	     -0.03112310	     -0.00486748	      0.01642985	     -0.01855027	     -0.00607719	      0.00370129	     -0.06738864	     -0.00424596	      0.00901978	     -0.18322286	     -0.00041721	     -0.00625054	      0.00189452	      0.00002005	      0.00004984	      0.00001993	      0.00009967	      0.00006379	      0.00019137	      0.00010764	     -0.00001065	     -0.00023346	     -0.00028015	      0.00249364	      0.00874887	      0.00608617	     -0.00815716	      0.01969553	     -0.01868117	      0.00249364	      0.00874887	      0.00608617	      0.00054945	      0.01825851	     -0.00959417	      0.00394454	      0.00486514	      0.01595931	      0.00000000	      0.00774016	      0.00000000	     -0.00714280	     -0.03300903	     -0.00638189	      0.01640338	     -0.00058446	     -0.00514902	     -0.00088757	      0.01487731	     -0.00608617	      0.00245137	      0.02147066	     -0.01775133	     -0.00595938	      0.01289085	     -0.00545220	     -0.01242593	      0.02721871	     -0.03047312	     -0.02333032	      0.01441239	     -0.00731186	     -0.01546902	      0.03144522	     -0.03808084
      1.23333333	     -0.31989095	      0.13549071	     -0.13549071	      0.31989095	     -0.06477141	      0.52345976	      0.23529156	     -0.23529156	     -0.52345976	      0.06477141	     99.43368789	     75.73702624	     -1.73544524	    -26.46483124	     30.76524034	     53.56479537	      0.27302089	     -0.05612722	      0.30951595	     -0.02806361	     31.90906759	    -17.22630583	    -16.92085151	     -2.82867149	    -11.04806908	      8.55248473	     38.91846910	      3.83498104	     -2.05757641	     -3.85756203	     20.57281370	     18.90379119	     13.62984590	     -4.35796236	      5.50703035	     24.12536225	     42.70761100	    -14.05943212	     -9.73762725	      4.99018672	      0.00091762	     -0.03112617	     -0.00486797	      0.01638930	     -0.01855753	     -0.00589299	      0.00359217	     -0.06745920	     -0.00436493	      0.00917432	     -0.18318676	     -0.00041344	     -0.00642776	      0.00196043	     -0.00000082	      0.00005479	      0.00002192	      0.00010958	      0.00007013	      0.00021039	      0.00011834	     -0.00001079	     -0.00023207	     -0.00027849	      0.00248249	      0.00870977	      0.00605897	     -0.00812070	      0.01960749	     -0.01859766	      0.00248249	      0.00870977	      0.00605897	      0.00054699	      0.01817690	     -0.00955129	      0.00393163	      0.00484339	      0.01592763	      0.00000000	      0.00767064	      0.00000000	     -0.00711087	     -0.03286148	     -0.00632418	      0.01722744	     -0.00063830	     -0.00585598	     -0.00088360	      0.01481081	     -0.00605897	      0.00244042	      0.02137469	     -0.01767199	     -0.00593274	      0.01283323	     -0.00542782	     -0.01237039	      0.02709705	     -0.03033691	     -0.02322604	      0.01434797	     -0.00727918	     -0.01539988	      0.03130466	     -0.03791062
      1.26666667	     -0.31995586	      0.13551820	     -0.13551820	      0.31995586	     -0.06478455	      0.52356598	      0.23533930	     -0.23533930	     -0.52356598	      0.06478455	     99.41217389	     75.75239488	     -1.73506975	    -26.47420486	     30.75375278	     53.56708086	      0.27305608	     -0.05615684	      0.30954796	     -0.02807842	     31.90883159	    -17.22572192	    -16.92119191	     -2.82853509	    -11.04759414	      8.55251156	     38.91849461	      3.83496831	     -2.05946577	     -3.85829982	     20.57275594	     18.90369943	     13.62766687	     -4.35848099	      5.50603755	     24.12503365	     42.70447437	    -14.05961081	     -9.73909505	      4.99004182	      0.00091724	     -0.03112485	     -0.00486776	      0.01638920	     -0.01855441	     -0.00589268	      0.00359200	     -0.06745931	     -0.00436512	      0.00917456	     -0.18318670	     -0.00041342	     -0.00642803	      0.00196054	     -0.00000086	      0.00005482	      0.00002193	      0.00010963	      0.00007016	      0.00021049	      0.00011840	     -0.00001078	     -0.00023207	     -0.00027848	      0.00248300	      0.00871153	      0.00606020	     -0.00812235	      0.01961147	     -0.01860144	      0.00248300	      0.00871153	      0.00606020	      0.00054710	      0.01818059	     -0.00955323	      0.00393221	      0.00484437	      0.01592907	      0.00000000	      0.00767378	      0.00000000	     -0.00711231	     -0.03286815	     -0.00632678	      0.01723190	     -0.00063861	     -0.00586027	     -0.00088378	      0.01481381	     -0.00606020	      0.00244091	      0.02137903	     -0.01767557	     -0.00593394	      0.01283583	     -0.00542893	     -0.01237290	      0.02710255	     -0.03034307	     -0.02323075	      0.01435088	     -0.00728065	     -0.01540300	      0.03131102	     -0.03791831
      1.30000000	     -0.31995835	      0.13551926	     -0.13551926	      0.31995835	     -0.06478506	      0.52357005	      0.23534113	     -0.23534113	     -0.52357005	      0.06478506	     99.43735058	     75.75298399	     -1.73550917	    -26.43412919	     30.73054023	     54.15141070	      0.28809031	     -0.03131768	      0.32304635	     -0.01565884	     32.23405729	    -17.18035652	    -17.32285578	     -2.86064487	    -10.58751494	      8.47058251	     38.74801649	      3.44025961	     -1.74401599	     -4.08077005	     20.53522980	     18.52812168	     13.75982483	     -4.54100091	      5.27376076	     23.79585394	     42.16945726	    -14.06389713	    -10.15213408	      4.98359114	      0.00091647	     -0.03112219	     -0.00486733	      0.01637178	     -0.01854810	     -0.00581895	      0.00354882	     -0.06748723	     -0.00441219	      0.00923589	     -0.18317225	     -0.00041147	     -0.00649815	      0.00198681	     -0.00000944	      0.00003122	      0.00001249	      0.00006245	      0.00003997	      0.00011990	      0.00006744	     -0.00001109	     -0.00022861	     -0.00027433	      0.00248302	      0.00871160	      0.00606024	     -0.00812241	      0.01961162	     -0.01860158	      0.00248302	      0.00871160	      0.00606024	      0.00054711	      0.01818073	     -0.00955330	      0.00393224	      0.00484441	      0.01592913	      0.00000000	      0.00767390	      0.00000000	     -0.00711237	     -0.03286841	     -0.00632688	      0.01721227	     -0.00063729	     -0.00584254	     -0.00088379	      0.01481393	     -0.00606024	      0.00244093	      0.02137919	     -0.01767571	     -0.00593399	      0.01283593	     -0.00542897	     -0.01237300	      0.02710276	     -0.03034330	     -0.02323093	      0.01435099	     -0.00728071	     -0.01540312	      0.03131126	     -0.03791861
      1.33333333	     -0.32068055	      0.13582515	     -0.13582515	      0.32068055	     -0.06493129	      0.52475183	      0.23587234	     -0.23587234	     -0.52475183	      0.06493129	     99.22931347	     75.92397093	     -1.73187823	    -25.52262269	     30.72716899	     53.95006065	      0.30266151	     -0.01948120	      0.33577600	     -0.00974060	     31.58586048	    -17.41869153	    -15.31976357	     -6.34440755	     -9.60524237	      8.28649675	     39.23595572	      2.63095095	     -0.06136901	     -4.20539525	     19.73477223	     19.60326304	     14.58068843	     -4.76586797	      4.55940929	     26.70527364	     42.09657818	    -14.05264653	    -10.29376125	      4.97981712	      0.00091636	     -0.03112180	     -0.00486727	      0.01637787	     -0.01854719	     -0.00584442	      0.00356370	     -0.06747761	     -0.00439597	      0.00921474	     -0.18317724	     -0.00041217	     -0.00647399	      0.00197775	     -0.00000646	      0.00001962	      0.00000785	      0.00003924	      0.00002511	      0.00007534	      0.00004238	     -0.00001046	     -0.00023540	     -0.00028248	      0.00248862	      0.00873126	      0.00607392	     -0.00814074	      0.01965589	     -0.01864357	      0.00248862	      0.00873126	      0.00607392	      0.00054834	      0.01822177	     -0.00957486	      0.00393873	      0.00485535	      0.01594508	      0.00000000	      0.00770882	      0.00000000	     -0.00712842	     -0.03294260	     -0.00635587	      0.01675918	     -0.00060730	     -0.00544595	     -0.00088578	      0.01484737	     -0.00607392	      0.00244644	      0.02142745	     -0.01771561	     -0.00594738	      0.01286491	     -0.00544122	     -0.01240093	      0.02716393	     -0.03041179	     -0.02328337	      0.01438339	     -0.00729714	     -0.01543789	      0.03138193	     -0.03800420
      1.36666667	     -0.32054374	      0.13576720	     -0.13576720	      0.32054374	     -0.06490359	      0.52452795	      0.23577170	     -0.23577170	     -0.52452795	      0.06490359	     99.15281432	     75.89157869	     -1.73054307	    -25.61103494	     30.95448913	     54.16877086	      0.30187294	     -0.01664290	      0.33509624	     -0.00832145	     31.17266437	    -17.65310537	    -15.56542819	     -6.25634969	     -8.62883009	      8.17417417	     39.48982768	      2.76936556	      1.26938060	     -3.93512081	     20.04764371	     19.65370194	     15.15327348	     -4.77567635	      4.84642800	     26.63793619	     41.08854942	    -14.03686478	    -10.56318159	      5.00488590	      0.00092388	     -0.03114786	     -0.00487147	      0.01637124	     -0.01860894	     -0.00581676	      0.00354754	     -0.06748806	     -0.00441359	      0.00923771	     -0.18317182	     -0.00041141	     -0.00650024	      0.00198759	     -0.00000970	      0.00001680	      0.00000672	      0.00003359	      0.00002150	      0.00006450	      0.00003628	     -0.00001001	     -0.00023946	     -0.00028736	      0.00248756	      0.00872754	      0.00607133	     -0.00813727	      0.01964750	     -0.01863561	      0.00248756	      0.00872754	      0.00607133	      0.00054811	      0.01821399	     -0.00957078	      0.00393750	      0.00485327	      0.01594207	      0.00000000	      0.00770220	      0.00000000	     -0.00712538	     -0.03292854	     -0.00635038	      0.01680357	     -0.00061020	     -0.00548397	     -0.00088540	      0.01484103	     -0.00607133	      0.00244540	      0.02141831	     -0.01770805	     -0.00594485	      0.01285942	     -0.00543890	     -0.01239563	      0.02715234	     -0.03039882	     -0.02327344	      0.01437725	     -0.00729403	     -0.01543130	      0.03136855	     -0.03798798
